<mxfile host="app.diagrams.net" modified="2023-09-19T22:15:56.053Z" agent="Mozilla/5.0 (Macintosh; Intel Mac OS X 10_15_7) AppleWebKit/537.36 (KHTML, like Gecko) Chrome/116.0.0.0 Safari/537.36" version="21.7.5" etag="BOZtavr6A-qyr_l1RhlX" type="github">
  <diagram name="Page-1" id="KA8IzhF5zA2UNJxtgb1T">
    <mxGraphModel>
      <root>
        <mxCell id="0" />
        <mxCell id="1" parent="0" />
      </root>
    </mxGraphModel>
  </diagram>
</mxfile>
